<svg width="32" height="32" viewBox="0 0 32 32" fill="none" xmlns="http://www.w3.org/2000/svg">
  <rect width="32" height="32" rx="1" fill="#F8F7F2"/>
  <path d="M23.1432 6.57621C22.9404 6.26433 22.6441 6.25538 22.3065 6.24517C22.2683 6.24401 22.2295 6.24284 22.1903 6.24121C22.1604 6.23983 22.1274 6.24036 22.0929 6.24092C21.956 6.24313 21.7959 6.24571 21.7152 6.13018C21.6217 5.99623 21.6305 5.73738 21.6379 5.52369C21.6402 5.45617 21.6423 5.39311 21.6411 5.33998C21.6279 4.84358 21.6005 4.31627 21.4097 4.13999C21.2658 4.00773 20.8354 4.02605 20.4384 4.04295C20.3097 4.04843 20.1846 4.05376 20.0738 4.05376H11.6242C11.4541 4.05376 11.2757 4.03984 11.1005 4.02617C10.7591 3.99954 10.4295 3.97383 10.1954 4.05376C9.85573 4.17033 9.83273 4.78288 9.81107 5.35969L9.8099 5.39072C9.79172 5.8669 9.67421 6.23434 9.28477 6.19733C8.83183 6.15498 8.38112 6.14162 8.17633 6.55332C7.93446 7.04043 7.98434 7.55032 8.07369 8.46362V8.46362C8.09681 8.69993 8.29532 8.88081 8.53275 8.88081H22.9526C23.134 8.88081 23.2852 8.74145 23.3008 8.56071V8.56071C23.3718 7.73902 23.4336 7.0231 23.1432 6.57621Z" fill="#8047F8"/>
  <path fill-rule="evenodd" clip-rule="evenodd" d="M9.29428 9.78661C9.53106 13.0049 9.76524 16.2268 9.99943 19.4488L9.99958 19.4508C10.1208 21.1179 10.2419 22.785 10.3635 24.4516C10.3736 24.5908 10.4895 24.6985 10.629 24.6985V24.6985C10.7638 24.6985 10.8773 24.7992 10.8928 24.933C10.9186 25.1558 10.9466 25.4063 10.9756 25.6666C11.054 26.3688 11.1403 27.1424 11.2139 27.6362C11.2177 27.6614 11.2393 27.68 11.2648 27.68V27.68C11.2709 27.68 11.2758 27.6794 11.2815 27.6772C11.8001 27.4845 15.1729 26.0082 15.1744 20.2155V20.2155C15.1734 20.189 15.1529 20.1659 15.1263 20.1659H14.3345C14.2938 20.1655 14.2543 20.1518 14.2222 20.127C14.19 20.1022 14.1669 20.0675 14.1565 20.0284C14.1526 20.0186 14.1487 20.0087 14.1448 19.9989C14.0302 19.7083 13.6826 19.5593 13.4536 19.7717V19.7717C13.1552 20.0485 12.6299 19.9955 12.6455 19.5889C12.6536 19.3779 12.6893 19.1673 12.7529 18.9627C12.8689 18.5889 13.0727 18.2509 13.3445 17.9748C13.582 17.7335 13.7604 17.4281 13.7883 17.0906C13.9124 15.5884 14.5264 14.1615 15.5449 13.0306L15.5627 13.0148C15.5959 12.9861 15.6383 12.97 15.6823 12.9697C15.7078 12.9699 15.7329 12.9754 15.7561 12.9857C15.7797 12.9962 15.8007 13.0115 15.8179 13.0306C16.8436 14.1579 17.4553 15.5896 17.5647 17.0942C17.5902 17.4448 17.7774 17.7621 18.0253 18.0113C18.2947 18.2821 18.4966 18.6151 18.6108 18.9841C18.6794 19.2059 18.7144 19.4346 18.7162 19.6631C18.7194 20.0594 18.2081 20.1002 17.9217 19.8263C17.9111 19.8161 17.9004 19.806 17.8896 19.7961C17.668 19.5909 17.3336 19.7513 17.2181 20.0304V20.0304C17.1904 20.1128 17.135 20.1659 17.0797 20.1659H16.2121C16.1964 20.1659 16.1843 20.1798 16.1852 20.1956V20.1956V20.1956C16.1855 20.1971 16.1856 20.1987 16.1856 20.2002V20.2027C16.1859 20.2113 16.1859 20.2199 16.1856 20.2285C16.1977 26.1448 19.7328 27.5427 20.1122 27.6757C20.122 27.6791 20.1299 27.68 20.1402 27.68V27.68C20.1901 27.68 20.2312 27.6411 20.2346 27.5914C20.2664 27.1287 20.3477 26.5186 20.4271 25.923C20.4729 25.5796 20.518 25.241 20.5527 24.9382C20.5682 24.8022 20.6827 24.6985 20.8196 24.6985V24.6985C20.9595 24.6985 21.0755 24.5904 21.0854 24.451C21.2365 22.331 21.3916 20.2166 21.5466 18.1021L21.5467 18.1009L21.5467 18.1003C21.7268 15.6454 21.9068 13.1904 22.0806 10.7267C22.1214 10.1485 21.6631 9.65727 21.0835 9.65727H9.42284C9.35818 9.65727 9.29235 9.67631 9.29269 9.74097C9.29276 9.75557 9.29351 9.77107 9.29428 9.78661ZM15.6823 12.9697L15.6814 12.9697H15.6834L15.6823 12.9697Z" fill="#8047F8"/>
  </svg>
  